<?xml version="1.0" standalone="no"?>
<!DOCTYPE svg PUBLIC "-//W3C//DTD SVG 20010904//EN"
 "http://www.w3.org/TR/2001/REC-SVG-20010904/DTD/svg10.dtd">
<svg version="1.0" xmlns="http://www.w3.org/2000/svg"
 width="512.000000pt" height="512.000000pt" viewBox="0 0 512.000000 512.000000"
 preserveAspectRatio="xMidYMid meet">
<metadata>
Created by potrace 1.14, written by Peter Selinger 2001-2017
</metadata>
<g transform="translate(0.000000,512.000000) scale(0.100000,-0.100000)"
fill="#000000" stroke="none">
<path d="M2379 5115 c-2 -1 -38 -6 -79 -9 -41 -4 -84 -9 -95 -11 -11 -3 -36
-7 -55 -9 -442 -63 -944 -302 -1288 -614 -208 -188 -398 -419 -509 -617 -100
-179 -228 -463 -222 -495 0 -3 -6 -23 -15 -45 -17 -44 -43 -136 -50 -175 -2
-14 -7 -36 -10 -50 -9 -39 -16 -77 -33 -190 -17 -113 -24 -469 -11 -595 43
-414 190 -820 421 -1165 53 -80 130 -184 156 -212 9 -9 50 -54 91 -100 76 -85
201 -201 300 -279 260 -206 592 -374 910 -459 103 -28 251 -57 365 -71 154
-20 554 -17 665 5 8 1 38 6 65 10 149 24 376 87 532 150 595 239 1072 683
1353 1261 108 222 208 533 225 700 1 6 5 35 9 65 4 30 9 72 12 92 l5 37 -546
-1 c-492 -1 -545 -3 -546 -17 0 -9 -2 -100 -2 -204 l-2 -187 298 0 c231 0 297
-3 297 -12 0 -27 -74 -209 -130 -321 -281 -560 -792 -970 -1399 -1122 -193
-49 -324 -63 -556 -60 -207 3 -240 6 -340 25 -27 5 -61 11 -75 14 -129 21
-379 109 -524 183 -211 109 -455 291 -594 445 -26 28 -56 61 -67 72 -45 46
-179 231 -229 316 -152 259 -246 541 -284 845 -17 141 -7 495 18 610 5 22 11
56 14 75 3 19 13 60 21 90 9 30 22 78 30 106 40 147 155 387 261 545 42 63 79
116 82 119 4 3 23 25 42 50 229 298 617 568 992 691 257 84 431 109 713 105
116 -2 219 -6 230 -9 11 -3 43 -8 70 -11 140 -19 290 -60 468 -127 167 -64
398 -199 550 -320 115 -93 270 -249 348 -353 19 -25 37 -46 40 -46 5 0 230
221 273 268 18 21 17 22 -56 109 -93 109 -260 270 -370 355 -87 68 -215 158
-223 158 -2 0 -28 15 -57 33 -29 18 -66 39 -83 47 -16 8 -41 22 -55 30 -78 51
-423 179 -550 205 -8 2 -46 10 -85 19 -38 8 -87 18 -107 21 -21 3 -53 7 -70
10 -18 3 -51 7 -73 11 -44 6 -461 15 -466 9z"/>
<path d="M2058 3875 c-2 -2 -21 -6 -43 -8 -344 -41 -653 -271 -788 -585 -54
-126 -72 -231 -70 -397 5 -410 258 -752 663 -897 109 -39 233 -56 408 -58
l166 -1 198 198 c109 109 198 200 198 204 0 3 -154 6 -342 6 -230 0 -363 4
-403 13 -235 48 -408 201 -466 413 -20 73 -20 207 1 285 39 154 152 291 295
357 130 60 109 59 743 62 474 3 582 2 583 -9 1 -7 1 -563 1 -1236 -1 -969 2
-1222 12 -1222 31 0 213 93 312 159 l79 53 3 1335 4 1334 -776 -2 c-426 -1
-776 -3 -778 -4z"/>
</g>
</svg>
