<?xml version="1.0" encoding="utf-8"?>
<!-- Generator: Adobe Illustrator 21.0.0, SVG Export Plug-In . SVG Version: 6.00 Build 0)  -->
<svg version="1.0" id="Layer_1" xmlns="http://www.w3.org/2000/svg" xmlns:xlink="http://www.w3.org/1999/xlink" x="0px" y="0px"
	 viewBox="0 0 782 425.5" style="enable-background:new 0 0 782 425.5;" xml:space="preserve">
<path d="M376.2,312.8c-10.8,2.1-20.3,5.9-29.6,10.8c-8.8,4.6-19,9.2-28.6,3.5c-6-3.6-10.2-10.4-14.8-16c-4.9-6.1-9.4-12.6-14.2-19.1
	c-9.3,4.3-18.7,8.3-27.6,13.1c-7.1,3.8-13.7,8.5-20.2,13.2c-5.3,3.8-11.7,2.8-16.4-2.4c-4.2-4.6-7.8-9.8-12.5-15.7
	c-4.9,4.6-10.1,8.8-14.5,13.8c-7.4,8.3-13.7,17.7-21.7,25.2c-9,8.4-14.3,6.8-22-3.1c-4.4-5.6-8.5-11.5-12.8-17.2
	c-0.6-0.1-1.3-0.1-1.9-0.2c-3.7,8.2-7.6,16.3-10.9,24.7c-3.7,9.4-7.1,18.9-9.9,28.6c-2.3,8-3.6,16.3-5.4,24.4
	c-0.3,1.4-0.6,2.9-1.2,4.2c-3.3,6.8-9.6,7.5-14.3,1.3c-8.3-10.8-17.1-21.3-24.4-32.8c-2.1-3.3-0.5-9.6,0.8-14.1
	c2.5-8.7,5.6-17.2,9.1-25.6c9-21.8,18.2-43.5,27.3-65.2c5.5-13.1,11-26.3,16.5-39.5c0.3-0.8,0.6-1.6,0.9-2.3
	c2.9-6.8,9.3-7.8,13.5-1.9c6.1,8.6,12,17.4,17.9,26.2c5.3,7.8,10.9,15.5,15.6,23.7c2.1,3.7,2.3,8.5,3.4,13.2c2-1.9,4.5-4.3,7-6.5
	c1.6-1.4,3.3-3.1,5.3-3.7c5.4-1.8,7.3-6,9.1-10.9c2.4-6.5,7.5-8.6,12.8-5.9c1.2,0.6,2.4,1.6,3.2,2.7c3.1,4.4,5.7,9.2,9.1,13.4
	c1.3,1.6,4.2,2.6,6.3,2.6c8.8,0,17.4,0,25.9-4.2c8.9-4.4,18.6-6.9,27.9-10.4c2.3-0.9,4.3-2.4,6.3-3.9c4.2-3.2,7.6-3.3,10.8,0.9
	c5.6,7.2,10.9,14.6,15.8,22.3c1.9,2.9,2.1,6.8,3.1,10.3c14.1,5.9,27.4,0.4,40.9-3.9c10.1-3.2,20.2-6.6,30.4-9.7
	c3.8-1.2,6.6-3.1,9-6.4c16-22.5,31.6-45.3,48.5-67c16.4-21.1,34.4-41,51.7-61.4c9.4-11.1,18.8-22.2,28.4-33.2
	c4-4.6,8.5-8.8,12.8-13.2c5.2-5.3,10.1-11.1,15.9-15.6c9-7,18.6-13.2,28-19.7c1.9-1.3,3.9-2.4,5.8-3.8c2.8-2,5.8-2.7,8,0.1
	c4.9,6.2,9.5,12.7,13.8,19.4c0.9,1.4,0.4,4.7-0.7,6c-6.2,6.8-12.9,13.2-19.3,19.8c-14.9,15.2-31.6,28.3-48.1,41.7
	c-8.2,6.7-15.5,14.4-23,21.8c-35.1,34.2-64.9,72.7-92.5,113c-2.2,3.2-4.3,6.3-6.4,9.3c1.9,3.1,4.1,5.9,5.2,9c0.8,2.2,0.1,4.9,0,7.3
	c-2.3-0.5-4.9-0.4-6.7-1.6c-3.5-2.4-7-2-8.8,1.1c-7.6,13-14.6,26.4-21.9,39.6c0.4,0.4,0.9,0.8,1.3,1.2c2.9-1.9,6.2-3.5,8.7-5.9
	c19.3-17.8,38.4-36,57.9-53.6c15.7-14.2,31.9-27.7,47.8-41.6c4-3.5,7.4-7.6,11.2-11.3c4.8-4.5,7-4.2,10.9,1
	c4.2,5.6,8.5,11.3,12.6,17c3.9,5.4,4.3,11.2,1.4,17.3c-0.5,1-0.5,2.2-0.9,4c3.7,0.5,7,1.4,10.4,1.5c14.6,0.4,29.2,1.3,43.8,0.7
	c28.3-1.1,56.5-3.6,84.8-4.5c27.3-0.8,54.6-0.4,82-0.2c2.1,0,4.6,1.7,6.1,3.3c3.7,4.3,7.1,8.9,10.2,13.6c1.2,1.8,2.4,4.6,1.7,6.2
	c-0.6,1.3-3.8,2.1-5.9,2.1c-13.6,0.4-27.3,0.7-40.9,0.8c-18.1,0.2-36.2-0.3-54.3,0.3c-23.6,0.9-47.2,2.2-70.7,4.1
	c-15.6,1.3-31,4.3-46.5,5.9c-7,0.7-14.2,0.5-21.2-0.5c-7.6-1.1-12.5-6.9-17-12.7c-3.6-4.6-6.9-9.5-10.9-14.9
	c-5.4,4.6-10.8,8.7-15.7,13.2c-26.6,24.7-53.3,49.3-79.6,74.3c-8.7,8.3-16.3,17.7-24.3,26.7c-6,6.7-13,6.9-18.5-0.2
	c-6.2-8-11.9-16.4-18.2-24.3c-3.3-4.2-1.8-8.1-0.1-11.9c5.5-12.8,11.3-25.5,16.9-38.2C375.4,315.5,375.6,314.4,376.2,312.8z"/>
<path d="M35.6,299.1c-1.9,2.9-3.3,5.1-4.8,7.3c-3,4.4-6.1,5-9.3,1c-6.8-8.3-13.1-16.9-19.3-25.6c-2.2-3.1-0.7-7,4.1-8.9
	c14.2-5.7,24.9-16.2,36.4-25.5c2.2-1.8,3.8-5.1,4.2-7.9c2.5-17.9,3.9-35.9,7-53.6c4.5-25.6,10.2-51,15.4-76.4
	c-0.5,0.3-1.8,0.8-2.8,1.7c-7.6,6.5-16.5,11.6-22.1,20.3c-2.6,4.1-5.7,4.2-8.8,0.4c-5.8-7.2-11.4-14.6-16.7-22.2
	c-1-1.4-0.9-4.3-0.1-6c1.6-3.4,3.4-7.2,6.1-9.6c10.9-9.9,22-19.7,33.4-29C65.9,58.4,73.9,52,82.6,47c10.7-6.2,22.1-11.2,33.5-16.2
	c10-4.4,20.2-8.6,30.7-11.9c10.9-3.4,22.1-5.7,33.3-8.2c14.2-3.2,28.5-6.4,42.8-9.2c4-0.8,8.2,0,12.3,0.1c5.6,0.1,11.2-0.1,16.7,0.3
	c10.5,0.6,18.4,5.4,24,14.5c4.9,7.9,10.3,15.4,15.5,23.1c3.7,5.6,2.8,11.3-0.1,16.7c-3.1,5.7-5.4,12.1-11.8,15.3
	c-1,0.5-1.8,1.5-2.5,2.4c-14.4,18.9-33.1,33.4-50.1,49.6c-29.1,27.6-59.6,53.7-89.5,80.5c-16.9,15.1-33.1,31.1-51,44.9
	c-14.2,10.9-18.5,25.7-22.2,41.4c-5.7,24.1-11.4,48.1-16.4,72.4c-1.9,9.3-2.1,19-2.6,28.5c-0.6,9.7-0.5,19.4-1.1,29.1
	c-0.1,1.9-1.7,4.4-3.3,5.2c-1.3,0.6-4.3-0.4-5.4-1.6c-6.9-8.6-14-17-19.8-26.3c-1.8-2.9,0-8.5,0.9-12.7c3.8-16.6,8.2-33.1,12-49.7
	C31.1,323.4,33.1,311.7,35.6,299.1z M90.6,205.2c4.3-3.6,7.4-6.3,10.5-9c18.8-16.7,37.6-33.3,56.3-50.1
	c20.2-18.1,40.6-35.9,60.1-54.7c11.4-11,21.6-23.4,31.3-36c5.3-6.8,10.1-14.4,11.1-23.7c-1.1-0.2-2.1-0.4-3-0.5
	c-11.5-1.4-22.4,1.9-33.6,3.1c-17.8,2-32.7,11.3-48.9,17.2c-5.6,2-10.7,5.1-16,7.8c-13.8,7.1-27.6,14.4-40.2,20.9
	c-0.4,4.5-0.3,8.2-1,11.7c-1,4.7-2.9,9.2-3.9,13.9c-4.3,19.4-8.4,38.9-12.6,58.3c-1.5,6.9-2.9,13.8-4.5,20.7
	C94.5,191.3,92.7,197.6,90.6,205.2z"/>
</svg>
