<?xml version="1.0" encoding="UTF-8" standalone="no"?>
<!DOCTYPE svg PUBLIC "-//W3C//DTD SVG 1.1//EN" "http://www.w3.org/Graphics/SVG/1.1/DTD/svg11.dtd">
<svg width="100%" height="100%" viewBox="0 0 782 426" version="1.1" xmlns="http://www.w3.org/2000/svg" xmlns:xlink="http://www.w3.org/1999/xlink" xml:space="preserve" xmlns:serif="http://www.serif.com/" style="fill-rule:evenodd;clip-rule:evenodd;stroke-linejoin:round;stroke-miterlimit:1.41421;">
    <path d="M376.2,312.8C365.4,314.9 355.9,318.7 346.6,323.6C337.8,328.2 327.6,332.8 318,327.1C312,323.5 307.8,316.7 303.2,311.1C298.3,305 293.8,298.5 289,292C279.7,296.3 270.3,300.3 261.4,305.1C254.3,308.9 247.7,313.6 241.2,318.3C235.9,322.1 229.5,321.1 224.8,315.9C220.6,311.3 217,306.1 212.3,300.2C207.4,304.8 202.2,309 197.8,314C190.4,322.3 184.1,331.7 176.1,339.2C167.1,347.6 161.8,346 154.1,336.1C149.7,330.5 145.6,324.6 141.3,318.9C140.7,318.8 140,318.8 139.4,318.7C135.7,326.9 131.8,335 128.5,343.4C124.8,352.8 121.4,362.3 118.6,372C116.3,380 115,388.3 113.2,396.4C112.9,397.8 112.6,399.3 112,400.6C108.7,407.4 102.4,408.1 97.7,401.9C89.4,391.1 80.6,380.6 73.3,369.1C71.2,365.8 72.8,359.5 74.1,355C76.6,346.3 79.7,337.8 83.2,329.4C92.2,307.6 101.4,285.9 110.5,264.2C116,251.1 121.5,237.9 127,224.7C127.3,223.9 127.6,223.1 127.9,222.4C130.8,215.6 137.2,214.6 141.4,220.5C147.5,229.1 153.4,237.9 159.3,246.7C164.6,254.5 170.2,262.2 174.9,270.4C177,274.1 177.2,278.9 178.3,283.6C180.3,281.7 182.8,279.3 185.3,277.1C186.9,275.7 188.6,274 190.6,273.4C196,271.6 197.9,267.4 199.7,262.5C202.1,256 207.2,253.9 212.5,256.6C213.7,257.2 214.9,258.2 215.7,259.3C218.8,263.7 221.4,268.5 224.8,272.7C226.1,274.3 229,275.3 231.1,275.3C239.9,275.3 248.5,275.3 257,271.1C265.9,266.7 275.6,264.2 284.9,260.7C287.2,259.8 289.2,258.3 291.2,256.8C295.4,253.6 298.8,253.5 302,257.7C307.6,264.9 312.9,272.3 317.8,280C319.7,282.9 319.9,286.8 320.9,290.3C335,296.2 348.3,290.7 361.8,286.4C371.9,283.2 382,279.8 392.2,276.7C396,275.5 398.8,273.6 401.2,270.3C417.2,247.8 432.8,225 449.7,203.3C466.1,182.2 484.1,162.3 501.4,141.9C510.8,130.8 520.2,119.7 529.8,108.7C533.8,104.1 538.3,99.9 542.6,95.5C547.8,90.2 552.7,84.4 558.5,79.9C567.5,72.9 577.1,66.7 586.5,60.2C588.4,58.9 590.4,57.8 592.3,56.4C595.1,54.4 598.1,53.7 600.3,56.5C605.2,62.7 609.8,69.2 614.1,75.9C615,77.3 614.5,80.6 613.4,81.9C607.2,88.7 600.5,95.1 594.1,101.7C579.2,116.9 562.5,130 546,143.4C537.8,150.1 530.5,157.8 523,165.2C487.9,199.4 458.1,237.9 430.5,278.2C428.3,281.4 426.2,284.5 424.1,287.5C426,290.6 428.2,293.4 429.3,296.5C430.1,298.7 429.4,301.4 429.3,303.8C427,303.3 424.4,303.4 422.6,302.2C419.1,299.8 415.6,300.2 413.8,303.3C406.2,316.3 399.2,329.7 391.9,342.9C392.3,343.3 392.8,343.7 393.2,344.1C396.1,342.2 399.4,340.6 401.9,338.2C421.2,320.4 440.3,302.2 459.8,284.6C475.5,270.4 491.7,256.9 507.6,243C511.6,239.5 515,235.4 518.8,231.7C523.6,227.2 525.8,227.5 529.7,232.7C533.9,238.3 538.2,244 542.3,249.7C546.2,255.1 546.6,260.9 543.7,267C543.2,268 543.2,269.2 542.8,271C546.5,271.5 549.8,272.4 553.2,272.5C567.8,272.9 582.4,273.8 597,273.2C625.3,272.1 653.5,269.6 681.8,268.7C709.1,267.9 736.4,268.3 763.8,268.5C765.9,268.5 768.4,270.2 769.9,271.8C773.6,276.1 777,280.7 780.1,285.4C781.3,287.2 782.5,290 781.8,291.6C781.2,292.9 778,293.7 775.9,293.7C762.3,294.1 748.6,294.4 735,294.5C716.9,294.7 698.8,294.2 680.7,294.8C657.1,295.7 633.5,297 610,298.9C594.4,300.2 579,303.2 563.5,304.8C556.5,305.5 549.3,305.3 542.3,304.3C534.7,303.2 529.8,297.4 525.3,291.6C521.7,287 518.4,282.1 514.4,276.7C509,281.3 503.6,285.4 498.7,289.9C472.1,314.6 445.4,339.2 419.1,364.2C410.4,372.5 402.8,381.9 394.8,390.9C388.8,397.6 381.8,397.8 376.3,390.7C370.1,382.7 364.4,374.3 358.1,366.4C354.8,362.2 356.3,358.3 358,354.5C363.5,341.7 369.3,329 374.9,316.3C375.4,315.5 375.6,314.4 376.2,312.8Z" style="fill:white;fill-rule:nonzero;"/>
    <path d="M35.6,299.1C33.7,302 32.3,304.2 30.8,306.4C27.8,310.8 24.7,311.4 21.5,307.4C14.7,299.1 8.4,290.5 2.2,281.8C0,278.7 1.5,274.8 6.3,272.9C20.5,267.2 31.2,256.7 42.7,247.4C44.9,245.6 46.5,242.3 46.9,239.5C49.4,221.6 50.8,203.6 53.9,185.9C58.4,160.3 64.1,134.9 69.3,109.5C68.8,109.8 67.5,110.3 66.5,111.2C58.9,117.7 50,122.8 44.4,131.5C41.8,135.6 38.7,135.7 35.6,131.9C29.8,124.7 24.2,117.3 18.9,109.7C17.9,108.3 18,105.4 18.8,103.7C20.4,100.3 22.2,96.5 24.9,94.1C35.8,84.2 46.9,74.4 58.3,65.1C65.9,58.4 73.9,52 82.6,47C93.3,40.8 104.7,35.8 116.1,30.8C126.1,26.4 136.3,22.2 146.8,18.9C157.7,15.5 168.9,13.2 180.1,10.7C194.3,7.5 208.6,4.3 222.9,1.5C226.9,0.7 231.1,1.5 235.2,1.6C240.8,1.7 246.4,1.5 251.9,1.9C262.4,2.5 270.3,7.3 275.9,16.4C280.8,24.3 286.2,31.8 291.4,39.5C295.1,45.1 294.2,50.8 291.3,56.2C288.2,61.9 285.9,68.3 279.5,71.5C278.5,72 277.7,73 277,73.9C262.6,92.8 243.9,107.3 226.9,123.5C197.8,151.1 167.3,177.2 137.4,204C120.5,219.1 104.3,235.1 86.4,248.9C72.2,259.8 67.9,274.6 64.2,290.3C58.5,314.4 52.8,338.4 47.8,362.7C45.9,372 45.7,381.7 45.2,391.2C44.6,400.9 44.7,410.6 44.1,420.3C44,422.2 42.4,424.7 40.8,425.5C39.5,426.1 36.5,425.1 35.4,423.9C28.5,415.3 21.4,406.9 15.6,397.6C13.8,394.7 15.6,389.1 16.5,384.9C20.3,368.3 24.7,351.8 28.5,335.2C31.1,323.4 33.1,311.7 35.6,299.1ZM90.6,205.2C94.9,201.6 98,198.9 101.1,196.2C119.9,179.5 138.7,162.9 157.4,146.1C177.6,128 198,110.2 217.5,91.4C228.9,80.4 239.1,68 248.8,55.4C254.1,48.6 258.9,41 259.9,31.7C258.8,31.5 257.8,31.3 256.9,31.2C245.4,29.8 234.5,33.1 223.3,34.3C205.5,36.3 190.6,45.6 174.4,51.5C168.8,53.5 163.7,56.6 158.4,59.3C144.6,66.4 130.8,73.7 118.2,80.2C117.8,84.7 117.9,88.4 117.2,91.9C116.2,96.6 114.3,101.1 113.3,105.8C109,125.2 104.9,144.7 100.7,164.1C99.2,171 97.8,177.9 96.2,184.8C94.5,191.3 92.7,197.6 90.6,205.2Z" style="fill:white;fill-rule:nonzero;"/>
</svg>
